<svg width="23" height="23" viewBox="0 0 23 23" fill="none" xmlns="http://www.w3.org/2000/svg">
<path d="M23 11.5C23 17.8513 17.8513 23 11.5 23C5.14873 23 0 17.8513 0 11.5C0 5.14873 5.14873 0 11.5 0C17.8513 0 23 5.14873 23 11.5Z" fill="#0769DE"/>
<path d="M11.5 4C12.5781 4 13.5156 4.60645 13.9873 5.49707C14.9512 5.20117 16.041 5.43555 16.8027 6.19727C17.5645 6.95898 17.7988 8.05176 17.5029 9.0127C18.3936 9.48438 19 10.4219 19 11.5C19 12.5781 18.3936 13.5156 17.5029 13.9873C17.7988 14.9512 17.5645 16.041 16.8027 16.8027C16.041 17.5645 14.9482 17.7988 13.9873 17.5029C13.5156 18.3936 12.5781 19 11.5 19C10.4219 19 9.48438 18.3936 9.0127 17.5029C8.04883 17.7988 6.95898 17.5645 6.19727 16.8027C5.43555 16.041 5.20117 14.9482 5.49707 13.9873C4.60645 13.5156 4 12.5781 4 11.5C4 10.4219 4.60645 9.48438 5.49707 9.0127C5.20117 8.04883 5.43555 6.95898 6.19727 6.19727C6.95898 5.43555 8.05176 5.20117 9.0127 5.49707C9.48438 4.60645 10.4219 4 11.5 4ZM9.625 10.5625C9.87364 10.5625 10.1121 10.4637 10.2879 10.2879C10.4637 10.1121 10.5625 9.87364 10.5625 9.625C10.5625 9.37636 10.4637 9.1379 10.2879 8.96209C10.1121 8.78627 9.87364 8.6875 9.625 8.6875C9.37636 8.6875 9.1379 8.78627 8.96209 8.96209C8.78627 9.1379 8.6875 9.37636 8.6875 9.625C8.6875 9.87364 8.78627 10.1121 8.96209 10.2879C9.1379 10.4637 9.37636 10.5625 9.625 10.5625ZM14.3125 13.375C14.3125 13.1264 14.2137 12.8879 14.0379 12.7121C13.8621 12.5363 13.6236 12.4375 13.375 12.4375C13.1264 12.4375 12.8879 12.5363 12.7121 12.7121C12.5363 12.8879 12.4375 13.1264 12.4375 13.375C12.4375 13.6236 12.5363 13.8621 12.7121 14.0379C12.8879 14.2137 13.1264 14.3125 13.375 14.3125C13.6236 14.3125 13.8621 14.2137 14.0379 14.0379C14.2137 13.8621 14.3125 13.6236 14.3125 13.375ZM13.873 10.123C14.1484 9.84766 14.1484 9.40234 13.873 9.12988C13.5977 8.85742 13.1523 8.85449 12.8799 9.12988L9.12695 12.877C8.85156 13.1523 8.85156 13.5977 9.12695 13.8701C9.40234 14.1426 9.84766 14.1455 10.1201 13.8701L13.873 10.123Z" fill="white"/>
</svg>
