<svg width="23" height="23" viewBox="0 0 23 23" fill="none" xmlns="http://www.w3.org/2000/svg">
<circle cx="11.5" cy="11.5" r="11.5" fill="#0769DE"/>
<path d="M8.09689 13.323L9.9169 7.798H11.8539L9.18889 15H6.97889L4.32689 7.798H6.27689L8.09689 13.323ZM15.3721 15.117C14.7828 15.117 14.2541 15.013 13.7861 14.805C13.3181 14.5883 12.9455 14.298 12.6681 13.934C12.3995 13.57 12.2521 13.167 12.2261 12.725H14.0591C14.0938 13.0023 14.2281 13.232 14.4621 13.414C14.7048 13.596 15.0038 13.687 15.3591 13.687C15.7058 13.687 15.9745 13.6177 16.1651 13.479C16.3645 13.3403 16.4641 13.1627 16.4641 12.946C16.4641 12.712 16.3428 12.5387 16.1001 12.426C15.8661 12.3047 15.4891 12.1747 14.9691 12.036C14.4318 11.906 13.9898 11.7717 13.6431 11.633C13.3051 11.4943 13.0105 11.282 12.7591 10.996C12.5165 10.71 12.3951 10.3243 12.3951 9.839C12.3951 9.44033 12.5078 9.07633 12.7331 8.747C12.9671 8.41767 13.2965 8.15767 13.7211 7.967C14.1545 7.77633 14.6615 7.681 15.2421 7.681C16.1001 7.681 16.7848 7.89767 17.2961 8.331C17.8075 8.75567 18.0891 9.332 18.1411 10.06H16.3991C16.3731 9.774 16.2518 9.54867 16.0351 9.384C15.8271 9.21067 15.5455 9.124 15.1901 9.124C14.8608 9.124 14.6051 9.18467 14.4231 9.306C14.2498 9.42733 14.1631 9.59633 14.1631 9.813C14.1631 10.0557 14.2845 10.242 14.5271 10.372C14.7698 10.4933 15.1468 10.619 15.6581 10.749C16.1781 10.879 16.6071 11.0133 16.9451 11.152C17.2831 11.2907 17.5735 11.5073 17.8161 11.802C18.0675 12.088 18.1975 12.4693 18.2061 12.946C18.2061 13.362 18.0891 13.7347 17.8551 14.064C17.6298 14.3933 17.3005 14.6533 16.8671 14.844C16.4425 15.026 15.9441 15.117 15.3721 15.117Z" fill="white"/>
</svg>
